<svg width="429" height="158" viewBox="0 0 429 158" fill="none" xmlns="http://www.w3.org/2000/svg">
<path d="M239.656 24.6646V76.4443H225.776V69.8438C223.992 72.3252 221.47 74.2996 218.209 75.7668C214.947 77.2341 211.382 77.9677 207.515 77.9677C202.698 77.9677 198.422 76.8475 194.687 74.6113C190.952 72.3751 188.04 69.2162 185.955 65.1345C183.869 61.0549 182.825 56.306 182.825 50.8922C182.825 45.364 183.907 40.4864 186.068 36.255C188.229 32.0237 191.291 28.7525 195.255 26.4415C199.219 24.1284 203.721 22.9729 208.766 22.9729C212.635 22.9729 216.086 23.6213 219.121 24.9181C222.154 26.215 224.619 28.1062 226.516 30.5876L227.654 24.6646H239.656ZM221.252 60.9052C223.812 58.2534 225.092 54.7286 225.092 50.329C225.092 45.9293 223.83 42.4046 221.309 39.7527C218.785 37.1009 215.459 35.777 211.325 35.777C207.116 35.777 203.777 37.1217 201.312 39.8109C198.848 42.5002 197.615 46.0062 197.615 50.3311C197.615 54.6559 198.875 58.1619 201.398 60.8512C203.92 63.5405 207.192 64.8851 211.212 64.8851C215.346 64.8809 218.693 63.5571 221.252 60.9052Z" fill="#D55D26"/>
<path d="M253.735 36.0306C256.068 31.8761 259.349 28.6611 263.576 26.3854C267.804 24.1118 272.669 22.9729 278.169 22.9729C285.564 22.9729 291.67 24.8994 296.487 28.7546C301.303 32.6098 304.014 37.7701 304.621 44.2376H289.832C289.148 41.4548 287.754 39.3308 285.65 37.8636C283.546 36.3963 280.976 35.6648 277.941 35.6648C274.071 35.6648 270.952 37.0094 268.582 39.6987C266.211 42.388 265.027 46.0083 265.027 50.5576C265.027 55.0321 266.192 58.615 268.525 61.3022C270.858 63.9914 273.996 65.336 277.941 65.336C281.049 65.336 283.678 64.5463 285.82 62.9668C287.962 61.3874 289.299 59.3382 289.832 56.8194H304.621C303.938 63.1373 301.169 68.2414 296.315 72.134C291.46 76.0266 285.411 77.9718 278.167 77.9718C272.667 77.9718 267.804 76.835 263.574 74.5593C259.344 72.2857 256.064 69.0707 253.733 64.9142C251.4 60.7597 250.235 55.9361 250.235 50.4454C250.237 44.9899 251.404 40.185 253.735 36.0306Z" fill="#D55D26"/>
<path d="M315.43 24.6641H329.88V76.4438H315.43V24.6641Z" fill="#D55D26"/>
<path d="M397.407 4.68604V76.4461H385.403L384.493 69.5089C382.709 72.0672 380.188 74.1164 376.926 75.6564C373.665 77.1984 370.081 77.9695 366.173 77.9695C361.204 77.9695 356.777 76.8327 352.891 74.557C349.002 72.2834 345.978 69.0496 343.817 64.8557C341.656 60.6638 340.574 55.8589 340.574 50.4451C340.574 45.0686 341.656 40.2824 343.817 36.0906C345.978 31.8987 349.002 28.6649 352.891 26.3893C356.777 24.1156 361.206 22.9768 366.173 22.9768C369.814 22.9768 373.095 23.5317 376.014 24.6414C378.934 25.7512 381.286 27.3411 383.07 29.4069V4.68604H397.407ZM379.003 60.9049C381.563 58.2531 382.843 54.7283 382.843 50.3287C382.843 45.929 381.582 42.4043 379.06 39.7524C376.536 37.1006 373.21 35.7767 369.076 35.7767C364.868 35.7767 361.529 37.1214 359.064 39.8106C356.599 42.4999 355.366 46.0059 355.366 50.3308C355.366 54.6556 356.626 58.1616 359.15 60.8509C361.671 63.5402 364.943 64.8848 368.963 64.8848C373.097 64.8806 376.444 63.5568 379.003 60.9049Z" fill="#D55D26"/>
<path d="M410.55 24.6641H425V76.4438H410.55V24.6641Z" fill="#D55D26"/>
<path d="M145.907 92.1889V79.0128H151.722C154.807 79.0128 157.061 76.5417 157.061 72.6595V24.6643H172.129V74.4261C172.129 84.4245 163.586 92.1889 153.621 92.1889C150.416 92.1889 145.907 92.1889 145.907 92.1889Z" fill="#D55D26"/>
<path d="M100.735 64.492L88.1588 55.1648C82.8369 51.3948 77.8021 47.2072 73.1803 42.6786C71.0088 40.5484 68.896 38.3205 66.8753 36.0137C66.2067 36.899 65.7602 37.4913 65.6764 37.6015C63.2575 40.8061 60.671 43.909 57.9566 46.8996C57.879 46.9952 57.8287 47.0554 57.8162 47.07C61.0483 50.6238 64.5382 54.0301 68.1351 57.2243C70.9815 59.7245 74.0774 61.9171 77.0496 64.3382L78.8627 65.8242C83.56 69.3468 88.4606 72.8695 92.1036 75.6294C97.7503 79.5739 98.3414 87.9763 93.4723 92.6524C90.3009 95.7968 85.6875 96.7777 81.4346 95.2107C79.3616 94.448 77.5254 93.0057 76.1253 91.0417L69.2984 81.4714L60.2497 93.1034C65.3997 100.539 69.2607 106.336 78.3429 108.979C95.1974 113.896 112.243 100.373 110.884 82.9137C110.356 75.5982 106.657 68.8854 100.735 64.492Z" fill="#D55D26"/>
<path d="M57.7519 66.9071C54.4799 63.3096 50.9774 59.8763 47.3345 56.6509C44.27 53.9907 37.2901 48.5997 36.6299 48.0905C31.9682 44.597 27.1158 41.1076 23.5022 38.3705C17.8554 34.426 17.2644 26.0236 22.1335 21.3476C26.923 16.4159 35.5902 17.1495 39.4826 22.9582L46.6092 32.142C46.6092 32.142 54.7021 22.2121 55.0689 21.2852L55.3582 20.8966C50.2082 13.4606 46.3472 7.66432 37.265 5.02078C20.4105 0.103624 3.36536 13.6268 4.72361 31.0863C5.25181 38.3996 8.95136 45.1145 14.8727 49.5058L27.4491 58.833C32.771 62.603 37.8058 66.7907 42.4276 71.3192C44.5886 73.439 46.691 75.6565 48.7011 77.9509C49.3781 77.0552 49.8309 76.4546 49.9168 76.3423C52.3734 73.0857 54.9956 69.9372 57.7519 66.9071Z" fill="#D55D26"/>
<path d="M84.2645 4.08369C69.374 5.29115 64.8654 15.7572 56.7306 26.0176C50.7799 34.314 44.2339 41.4985 36.5728 48.0471L36.6294 48.0907C37.2896 48.5999 44.2695 53.9909 47.3339 56.6511C47.4786 56.7758 47.6169 56.8984 47.7427 57.0106C51.3186 53.8371 54.7309 50.4496 57.9568 46.8999C60.6712 43.9114 63.2577 40.8065 65.6766 37.6018C65.7604 37.4916 66.2069 36.8993 66.8755 36.014C69.6843 32.2918 76.4441 23.3304 77.0268 22.5594C81.2461 17.0312 89.012 16.5657 94.1076 21.3685C99.0249 26.107 98.2829 34.607 92.6194 38.4372L82.4744 45.5511C82.4744 45.5511 93.6108 53.9161 93.942 54.153L94.334 54.4336C101.888 49.2712 107.86 45.4617 110.553 36.3507C115.569 19.6602 101.727 2.66839 84.2645 4.08369Z" fill="#002E82"/>
<path d="M78.8658 65.8241L77.0527 64.3381C74.0784 61.9191 70.9846 59.7244 68.1381 57.2243C68.0333 57.1328 67.9264 57.0414 67.8216 56.95C64.2939 60.0798 60.9339 63.4133 57.7542 66.9089C54.5535 70.442 51.5541 74.1392 48.7516 78.0089L48.7013 77.9528C45.8842 81.6874 39.1475 90.6177 38.5669 91.3866C34.3475 96.9148 26.5816 97.3803 21.486 92.5775C16.5687 87.8391 17.3107 79.339 22.9742 75.5088L33.1192 68.3949C30.1616 65.8615 22.1212 60.1401 21.2597 59.5124C13.7055 64.6748 7.73377 68.4843 5.04033 77.5953C0.0223539 94.2858 13.8669 111.278 31.3271 109.862C46.2175 108.655 50.7261 98.1888 58.8609 87.9284C64.8117 79.632 71.3241 72.4724 78.9852 65.9239L78.8658 65.8241Z" fill="#002E82"/>
<path d="M345.71 139.046H347.867V151.778C347.867 152.915 347.658 153.88 347.24 154.674C346.823 155.469 346.235 156.072 345.475 156.483C344.715 156.895 343.82 157.101 342.788 157.101C341.814 157.101 340.947 156.924 340.187 156.57C339.428 156.211 338.831 155.701 338.396 155.04C337.961 154.379 337.744 153.593 337.744 152.683H339.866C339.866 153.187 339.99 153.628 340.24 154.005C340.495 154.376 340.843 154.666 341.283 154.874C341.724 155.083 342.225 155.187 342.788 155.187C343.408 155.187 343.936 155.057 344.371 154.796C344.805 154.535 345.136 154.153 345.362 153.648C345.594 153.138 345.71 152.515 345.71 151.778V139.046ZM355.841 157.17C354.995 157.17 354.227 157.011 353.537 156.692C352.847 156.367 352.299 155.901 351.893 155.292C351.487 154.677 351.284 153.935 351.284 153.065C351.284 152.3 351.435 151.68 351.737 151.204C352.038 150.723 352.441 150.346 352.945 150.074C353.45 149.801 354.006 149.598 354.615 149.465C355.23 149.326 355.847 149.216 356.468 149.135C357.279 149.03 357.937 148.952 358.442 148.9C358.952 148.842 359.323 148.746 359.555 148.613C359.793 148.479 359.911 148.247 359.911 147.917V147.847C359.911 146.989 359.677 146.323 359.207 145.847C358.743 145.372 358.039 145.134 357.094 145.134C356.114 145.134 355.346 145.349 354.789 145.778C354.233 146.207 353.841 146.665 353.615 147.152L351.667 146.456C352.015 145.644 352.479 145.012 353.058 144.56C353.644 144.102 354.282 143.783 354.972 143.603C355.667 143.418 356.352 143.325 357.024 143.325C357.453 143.325 357.946 143.377 358.503 143.482C359.065 143.58 359.607 143.786 360.129 144.099C360.656 144.412 361.094 144.885 361.442 145.517C361.79 146.149 361.964 146.995 361.964 148.056V156.857H359.911V155.048H359.807C359.668 155.338 359.436 155.648 359.111 155.979C358.787 156.309 358.355 156.59 357.816 156.822C357.276 157.054 356.618 157.17 355.841 157.17ZM356.155 155.327C356.966 155.327 357.65 155.167 358.207 154.848C358.769 154.529 359.193 154.118 359.477 153.613C359.767 153.109 359.911 152.578 359.911 152.022V150.143C359.824 150.248 359.633 150.343 359.337 150.43C359.048 150.512 358.711 150.584 358.329 150.648C357.952 150.706 357.584 150.758 357.224 150.804C356.871 150.845 356.584 150.88 356.363 150.909C355.83 150.978 355.331 151.091 354.867 151.248C354.409 151.399 354.038 151.628 353.754 151.935C353.476 152.236 353.337 152.648 353.337 153.17C353.337 153.883 353.601 154.422 354.128 154.787C354.662 155.147 355.337 155.327 356.155 155.327ZM371.137 157.135C369.884 157.135 368.806 156.84 367.902 156.248C366.997 155.657 366.301 154.842 365.814 153.805C365.327 152.767 365.084 151.581 365.084 150.248C365.084 148.891 365.333 147.694 365.832 146.656C366.336 145.612 367.038 144.798 367.936 144.212C368.841 143.621 369.896 143.325 371.102 143.325C372.041 143.325 372.888 143.499 373.641 143.847C374.395 144.195 375.012 144.682 375.494 145.308C375.975 145.934 376.274 146.665 376.389 147.5H374.337C374.181 146.891 373.833 146.352 373.293 145.882C372.76 145.407 372.041 145.169 371.137 145.169C370.337 145.169 369.635 145.378 369.032 145.795C368.435 146.207 367.968 146.789 367.632 147.543C367.301 148.291 367.136 149.169 367.136 150.178C367.136 151.21 367.299 152.109 367.623 152.874C367.954 153.639 368.418 154.234 369.015 154.657C369.618 155.08 370.325 155.292 371.137 155.292C371.67 155.292 372.154 155.199 372.589 155.013C373.024 154.828 373.392 154.561 373.693 154.213C373.995 153.866 374.209 153.448 374.337 152.961H376.389C376.274 153.75 375.987 154.46 375.528 155.092C375.076 155.718 374.476 156.217 373.728 156.588C372.986 156.953 372.122 157.135 371.137 157.135ZM379.39 156.857V143.499H381.442V156.857H379.39ZM380.433 141.273C380.033 141.273 379.688 141.137 379.399 140.864C379.114 140.592 378.972 140.264 378.972 139.881C378.972 139.499 379.114 139.171 379.399 138.899C379.688 138.626 380.033 138.49 380.433 138.49C380.833 138.49 381.176 138.626 381.46 138.899C381.75 139.171 381.894 139.499 381.894 139.881C381.894 140.264 381.75 140.592 381.46 140.864C381.176 141.137 380.833 141.273 380.433 141.273ZM390.245 157.135C389.132 157.135 388.15 156.854 387.297 156.292C386.445 155.724 385.778 154.924 385.297 153.892C384.816 152.854 384.575 151.628 384.575 150.213C384.575 148.81 384.816 147.592 385.297 146.56C385.778 145.528 386.448 144.731 387.306 144.169C388.164 143.606 389.155 143.325 390.28 143.325C391.15 143.325 391.837 143.47 392.341 143.76C392.852 144.044 393.24 144.369 393.507 144.734C393.779 145.093 393.991 145.389 394.142 145.621H394.315V139.046H396.368V156.857H394.385V154.805H394.142C393.991 155.048 393.776 155.356 393.498 155.727C393.22 156.092 392.823 156.419 392.307 156.709C391.791 156.993 391.103 157.135 390.245 157.135ZM390.524 155.292C391.347 155.292 392.043 155.077 392.611 154.648C393.179 154.213 393.611 153.613 393.907 152.848C394.202 152.077 394.35 151.187 394.35 150.178C394.35 149.181 394.205 148.308 393.915 147.56C393.626 146.807 393.196 146.221 392.628 145.804C392.06 145.38 391.359 145.169 390.524 145.169C389.654 145.169 388.929 145.392 388.35 145.839C387.776 146.279 387.344 146.879 387.054 147.639C386.77 148.392 386.628 149.239 386.628 150.178C386.628 151.129 386.773 151.993 387.062 152.77C387.358 153.541 387.793 154.155 388.367 154.613C388.947 155.066 389.666 155.292 390.524 155.292ZM400.412 156.857V143.499H402.464V156.857H400.412ZM401.455 141.273C401.055 141.273 400.71 141.137 400.421 140.864C400.136 140.592 399.994 140.264 399.994 139.881C399.994 139.499 400.136 139.171 400.421 138.899C400.71 138.626 401.055 138.49 401.455 138.49C401.855 138.49 402.198 138.626 402.482 138.899C402.772 139.171 402.916 139.499 402.916 139.881C402.916 140.264 402.772 140.592 402.482 140.864C402.198 141.137 401.855 141.273 401.455 141.273Z" fill="#20201F"/>
</svg>
