<svg width="40" height="40" viewBox="0 0 40 40" fill="none" xmlns="http://www.w3.org/2000/svg">
<path d="M33.5693 22.4031L29.5951 19.4114C27.9133 18.2021 26.3223 16.8589 24.8618 15.4064C24.1756 14.7231 23.5079 14.0085 22.8694 13.2686C22.6581 13.5525 22.517 13.7425 22.4905 13.7778C21.7261 14.8058 20.9087 15.801 20.051 16.7603C20.0265 16.7909 20.0106 16.8103 20.0066 16.8149C21.028 17.9548 22.1308 19.0474 23.2674 20.072C24.1669 20.8739 25.1453 21.5772 26.0845 22.3538L26.6575 22.8304C28.1418 23.9603 29.6905 25.0903 30.8417 25.9755C32.6261 27.2407 32.8129 29.9359 31.2742 31.4357C30.272 32.4443 28.8142 32.759 27.4702 32.2563C26.8151 32.0117 26.2349 31.5491 25.7924 30.9191L23.6351 27.8494L20.7756 31.5804C22.4031 33.9655 23.6231 35.8247 26.4932 36.6726C31.8193 38.2498 37.2057 33.9122 36.7765 28.312C36.6096 25.9655 35.4405 23.8124 33.5693 22.4031Z" fill="#D55D26"/>
<path d="M19.986 23.1778C18.952 22.0239 17.8452 20.9226 16.694 19.8881C15.7256 19.0348 13.5199 17.3056 13.3113 17.1423C11.8382 16.0217 10.3048 14.9025 9.16284 14.0245C7.37841 12.7593 7.19162 10.0642 8.73031 8.56432C10.2438 6.98245 12.9827 7.21777 14.2128 9.08095L16.4648 12.0267C16.4648 12.0267 19.0222 8.84163 19.1382 8.54432L19.2296 8.41967C17.6021 6.03453 16.382 4.17535 13.512 3.32742C8.18584 1.75022 2.79944 6.08786 3.22865 11.6881C3.39557 14.0339 4.56466 16.1877 6.43586 17.5962L10.4101 20.588C12.0918 21.7972 13.6829 23.1405 15.1434 24.593C15.8263 25.2729 16.4907 25.9842 17.1259 26.7202C17.3398 26.4329 17.4829 26.2402 17.5101 26.2042C18.2864 25.1596 19.115 24.1497 19.986 23.1778Z" fill="#D55D26"/>
<path d="M28.3639 3.02702C23.6584 3.41432 22.2337 6.77138 19.663 10.0624C17.7825 12.7236 15.7139 15.028 13.293 17.1285L13.3109 17.1425C13.5195 17.3058 15.7252 19.035 16.6936 19.8883C16.7393 19.9283 16.783 19.9676 16.8227 20.0036C17.9528 18.9857 19.0311 17.8991 20.0505 16.7606C20.9083 15.802 21.7256 14.806 22.49 13.7781C22.5165 13.7428 22.6576 13.5528 22.8689 13.2688C23.7565 12.0749 25.8926 9.20051 26.0767 8.9532C27.4101 7.18001 29.8642 7.03069 31.4744 8.57123C33.0283 10.0911 32.7939 12.8175 31.0041 14.0461L27.7983 16.3279C27.7983 16.3279 31.3174 19.011 31.4221 19.087L31.5459 19.177C33.9331 17.5212 35.8202 16.2993 36.6714 13.3768C38.2564 8.02327 33.8821 2.57306 28.3639 3.02702Z" fill="#002E82"/>
<path d="M26.6582 22.8306L26.0852 22.3539C25.1453 21.578 24.1676 20.8741 23.2681 20.0721C23.235 20.0428 23.2012 20.0135 23.1681 19.9841C22.0533 20.988 20.9916 22.0573 19.9867 23.1785C18.9753 24.3118 18.0274 25.4977 17.1419 26.7389L17.126 26.7209C16.2357 27.9188 14.1069 30.7832 13.9234 31.0299C12.59 32.8031 10.1359 32.9524 8.52572 31.4119C6.9718 29.892 7.20628 27.1655 8.99601 25.937L12.2019 23.6552C11.2673 22.8426 8.72642 21.0074 8.45419 20.8061C6.067 22.4619 4.1799 23.6838 3.32875 26.6063C1.74303 31.9598 6.118 37.41 11.6356 36.9561C16.341 36.5688 17.7658 33.2117 20.3365 29.9206C22.2169 27.2595 24.2749 24.9631 26.6959 22.8626L26.6582 22.8306Z" fill="#002E82"/>
</svg>
