<svg width="185" height="52" viewBox="0 0 185 52" fill="none" xmlns="http://www.w3.org/2000/svg">
<path d="M103.178 12.0797V34.3707H97.2862V31.5292C96.5291 32.5974 95.4588 33.4474 94.0745 34.079C92.6901 34.7107 91.1768 35.0265 89.5353 35.0265C87.4909 35.0265 85.676 34.5443 84.0906 33.5816C82.5052 32.6189 81.2694 31.259 80.3842 29.5018C79.499 27.7456 79.0559 25.7012 79.0559 23.3706C79.0559 20.9907 79.515 18.8909 80.4322 17.0693C81.3495 15.2478 82.6493 13.8395 84.3317 12.8447C86.014 11.8489 87.925 11.3514 90.0665 11.3514C91.7088 11.3514 93.1732 11.6306 94.4615 12.1889C95.7488 12.7471 96.7951 13.5613 97.6002 14.6296L98.0833 12.0797H103.178ZM95.3662 27.6812C96.4525 26.5396 96.9961 25.0222 96.9961 23.1281C96.9961 21.2341 96.4605 19.7167 95.3903 18.5751C94.3191 17.4335 92.9072 16.8636 91.1528 16.8636C89.3663 16.8636 87.9491 17.4424 86.9028 18.6001C85.8566 19.7579 85.3334 21.2672 85.3334 23.129C85.3334 24.9909 85.8681 26.5002 86.9393 27.6579C88.0096 28.8156 89.3983 29.3945 91.1047 29.3945C92.8592 29.3927 94.28 28.8228 95.3662 27.6812Z" fill="#20201F"/>
<path d="M109.153 16.9727C110.144 15.1843 111.536 13.8002 113.33 12.8205C115.125 11.8417 117.19 11.3514 119.524 11.3514C122.663 11.3514 125.255 12.1808 127.299 13.8404C129.344 15.5001 130.494 17.7216 130.752 20.5058H124.475C124.184 19.3078 123.593 18.3935 122.7 17.7618C121.806 17.1302 120.716 16.8153 119.427 16.8153C117.785 16.8153 116.461 17.3941 115.455 18.5518C114.449 19.7096 113.946 21.2681 113.946 23.2265C113.946 25.1528 114.441 26.6952 115.431 27.852C116.421 29.0098 117.753 29.5886 119.427 29.5886C120.747 29.5886 121.862 29.2486 122.772 28.5687C123.681 27.8887 124.249 27.0066 124.475 25.9222H130.752C130.462 28.642 129.287 30.8394 127.226 32.5151C125.166 34.1909 122.598 35.0283 119.523 35.0283C117.189 35.0283 115.125 34.5389 113.33 33.5592C111.534 32.5804 110.142 31.1964 109.153 29.407C108.162 27.6185 107.668 25.542 107.668 23.1782C107.669 20.8297 108.164 18.7612 109.153 16.9727Z" fill="#20201F"/>
<path d="M135.34 12.0796H141.473V34.3706H135.34V12.0796Z" fill="#20201F"/>
<path d="M170.135 3.47913V34.3716H165.04L164.653 31.3851C163.896 32.4865 162.826 33.3686 161.442 34.0316C160.057 34.6955 158.536 35.0274 156.878 35.0274C154.768 35.0274 152.889 34.538 151.24 33.5583C149.59 32.5795 148.306 31.1874 147.389 29.3819C146.471 27.5774 146.012 25.5089 146.012 23.1782C146.012 20.8637 146.471 18.8032 147.389 16.9987C148.306 15.1941 149.59 13.802 151.24 12.8223C152.889 11.8435 154.769 11.3532 156.878 11.3532C158.423 11.3532 159.815 11.5921 161.055 12.0699C162.294 12.5476 163.292 13.232 164.049 14.1214V3.47913H170.135ZM162.323 27.6812C163.41 26.5395 163.953 25.0222 163.953 23.1281C163.953 21.2341 163.418 19.7167 162.347 18.5751C161.276 17.4335 159.864 16.8636 158.11 16.8636C156.323 16.8636 154.906 17.4424 153.86 18.6001C152.814 19.7579 152.291 21.2672 152.291 23.129C152.291 24.9908 152.825 26.5002 153.896 27.6579C154.967 28.8156 156.356 29.3945 158.062 29.3945C159.816 29.3927 161.237 28.8228 162.323 27.6812Z" fill="#20201F"/>
<path d="M175.713 12.0796H181.847V34.3706H175.713V12.0796Z" fill="#20201F"/>
<path d="M63.3862 41.1487V35.4764H65.8542C67.1638 35.4764 68.1202 34.4126 68.1202 32.7414V12.0796H74.516V33.5018C74.516 37.8061 70.8897 41.1487 66.6602 41.1487C65.2999 41.1487 63.3862 41.1487 63.3862 41.1487Z" fill="#20201F"/>
<path d="M44.2128 29.2253L38.8747 25.2099C36.6159 23.587 34.4789 21.7842 32.5171 19.8347C31.5954 18.9176 30.6987 17.9586 29.841 16.9655C29.5572 17.3466 29.3677 17.6016 29.3321 17.649C28.3054 19.0286 27.2076 20.3643 26.0555 21.6518C26.0225 21.693 26.0012 21.7189 25.9958 21.7252C27.3677 23.2551 28.849 24.7214 30.3757 26.0966C31.5839 27.1729 32.8979 28.1168 34.1595 29.1591L34.929 29.7988C36.9228 31.3153 39.0028 32.8317 40.5491 34.0199C42.9459 35.718 43.1968 39.3352 41.13 41.3482C39.784 42.7019 37.8258 43.1242 36.0207 42.4496C35.1408 42.1212 34.3614 41.5003 33.7671 40.6548L30.8695 36.5348L27.0288 41.5424C29.2147 44.7435 30.8535 47.2388 34.7084 48.3768C41.8622 50.4936 49.0971 44.6719 48.5205 37.1557C48.2963 34.0065 46.7261 31.1166 44.2128 29.2253Z" fill="#20201F"/>
<path d="M25.9686 30.265C24.5798 28.7163 23.0932 27.2383 21.5469 25.8497C20.2462 24.7045 17.2836 22.3837 17.0034 22.1645C15.0247 20.6606 12.9651 19.1584 11.4314 17.9801C9.03458 16.282 8.78369 12.6648 10.8504 10.6518C12.8833 8.52869 16.5621 8.84452 18.2142 11.3452L21.2391 15.2987C21.2391 15.2987 24.6741 11.024 24.8298 10.6249L24.9526 10.4576C22.7667 7.25646 21.1279 4.76119 17.2729 3.62316C10.1191 1.50634 2.88428 7.32803 3.46079 14.8442C3.68498 17.9926 5.25525 20.8834 7.76857 22.7738L13.1066 26.7891C15.3655 28.4121 17.5025 30.2149 19.4642 32.1644C20.3814 33.077 21.2738 34.0316 22.127 35.0193C22.4143 34.6337 22.6065 34.3751 22.643 34.3268C23.6857 32.9249 24.7987 31.5694 25.9686 30.265Z" fill="#20201F"/>
<path d="M37.2217 3.21981C30.9015 3.73962 28.9878 8.24523 25.535 12.6623C23.0092 16.2338 20.2308 19.3268 16.979 22.1459L17.003 22.1647C17.2833 22.3839 20.2459 24.7047 21.5466 25.8499C21.608 25.9036 21.6667 25.9563 21.7201 26.0047C23.2378 24.6385 24.6862 23.1801 26.0554 21.652C27.2076 20.3655 28.3054 19.0288 29.3321 17.6492C29.3677 17.6018 29.5572 17.3468 29.841 16.9657C31.0331 15.3633 33.9023 11.5055 34.1497 11.1735C35.9406 8.79367 39.2368 8.59327 41.3996 10.6609C43.4868 12.7007 43.1718 16.36 40.7679 18.0089L36.4619 21.0714C36.4619 21.0714 41.1887 24.6725 41.3293 24.7745L41.4957 24.8953C44.702 22.6729 47.2367 21.0329 48.38 17.1106C50.5089 9.92544 44.6335 2.61053 37.2217 3.21981Z" fill="#20201F"/>
<path d="M34.9302 29.7989L34.1607 29.1592C32.8982 28.1178 31.5851 27.173 30.3769 26.0967C30.3324 26.0574 30.2871 26.018 30.2426 25.9786C28.7453 27.326 27.3191 28.7611 25.9695 30.266C24.6109 31.7869 23.3378 33.3785 22.1483 35.0444L22.127 35.0203C20.9313 36.628 18.0719 40.4725 17.8254 40.8035C16.0345 43.1834 12.7383 43.3838 10.5755 41.3162C8.48832 39.2763 8.80327 35.617 11.2072 33.9681L15.5132 30.9056C14.2578 29.815 10.8451 27.352 10.4794 27.0818C7.27303 29.3042 4.73836 30.9441 3.59513 34.8664C1.46526 42.0516 7.34154 49.3665 14.7525 48.7572C21.0727 48.2374 22.9864 43.7318 26.4392 39.3148C28.965 35.7432 31.7292 32.661 34.981 29.8419L34.9302 29.7989Z" fill="#20201F"/>
</svg>
