<svg width="40" height="40" viewBox="0 0 40 40" fill="none" xmlns="http://www.w3.org/2000/svg">
<path d="M33.5312 22.3923L29.5719 19.4141C27.8965 18.2103 26.3115 16.8732 24.8564 15.4272C24.1728 14.747 23.5076 14.0357 22.8715 13.2991C22.661 13.5818 22.5205 13.7709 22.4941 13.8061C21.7326 14.8293 20.9183 15.8201 20.0637 16.775C20.0393 16.8055 20.0235 16.8247 20.0195 16.8294C21.0371 17.9641 22.1358 19.0518 23.2681 20.0717C24.1642 20.87 25.1389 21.5701 26.0746 22.3432L26.6454 22.8177C28.1242 23.9425 29.6669 25.0672 30.8138 25.9485C32.5915 27.208 32.7776 29.8909 31.2447 31.384C30.2463 32.388 28.7939 32.7012 27.455 32.2009C26.8024 31.9573 26.2244 31.4968 25.7836 30.8697L23.6343 27.8139L20.7857 31.528C22.407 33.9023 23.6225 35.7531 26.4817 36.5972C31.7878 38.1673 37.1539 33.8493 36.7263 28.2744C36.56 25.9385 35.3953 23.7951 33.5312 22.3923Z" fill="#20201F"/>
<path d="M19.9995 23.1633C18.9694 22.0147 17.8667 20.9184 16.7199 19.8885C15.7551 19.0391 13.5577 17.3177 13.3499 17.1552C11.8823 16.0397 10.3547 14.9255 9.21707 14.0515C7.43936 12.792 7.25327 10.1091 8.78617 8.61604C10.294 7.04133 13.0226 7.27558 14.248 9.13032L16.4916 12.0627C16.4916 12.0627 19.0394 8.89209 19.1548 8.59613L19.2459 8.47204C17.6246 6.0977 16.4091 4.24693 13.5498 3.40284C8.24375 1.83278 2.87762 6.15078 3.30522 11.7256C3.47151 14.0608 4.6362 16.2049 6.50035 17.6071L10.4596 20.5853C12.135 21.789 13.7201 23.1262 15.1751 24.5722C15.8554 25.249 16.5173 25.9571 17.1501 26.6897C17.3633 26.4037 17.5058 26.2119 17.5328 26.1761C18.3062 25.1362 19.1317 24.1309 19.9995 23.1633Z" fill="#20201F"/>
<path d="M28.3457 3.1038C23.658 3.48935 22.2386 6.83121 19.6776 10.1074C17.8042 12.7564 15.7434 15.0505 13.3315 17.1415L13.3494 17.1554C13.5572 17.318 15.7546 19.0393 16.7194 19.8887C16.7649 19.9286 16.8084 19.9677 16.848 20.0035C17.9738 18.9902 19.0481 17.9086 20.0636 16.7752C20.9182 15.8209 21.7324 14.8295 22.4939 13.8062C22.5203 13.7711 22.6609 13.5819 22.8714 13.2993C23.7556 12.1108 25.8837 9.24934 26.0672 9.00315C27.3955 7.23799 29.8404 7.08935 31.4445 8.62291C32.9926 10.1359 32.759 12.85 30.976 14.073L27.7822 16.3445C27.7822 16.3445 31.2881 19.0155 31.3924 19.0911L31.5158 19.1807C33.894 17.5323 35.774 16.316 36.6219 13.4068C38.201 8.07744 33.8432 2.65189 28.3457 3.1038Z" fill="#20201F"/>
<path d="M26.6462 22.8177L26.0754 22.3432C25.1391 21.5708 24.1651 20.87 23.269 20.0717C23.236 20.0425 23.2023 20.0133 23.1693 19.9841C22.0588 20.9835 21.001 22.0479 19.9999 23.1641C18.9923 24.2922 18.048 25.4727 17.1658 26.7083L17.1499 26.6904C16.263 27.8829 14.1422 30.7344 13.9594 30.9799C12.6311 32.745 10.1862 32.8937 8.58207 31.3601C7.03399 29.8471 7.26759 27.133 9.05058 25.91L12.2444 23.6385C11.3133 22.8296 8.78201 21.0027 8.5108 20.8023C6.1326 22.4507 4.25261 23.6671 3.40466 26.5763C1.82491 31.9056 6.18341 37.3311 11.6802 36.8792C16.368 36.4937 17.7874 33.1518 20.3483 29.8757C22.2217 27.2266 24.272 24.9405 26.6838 22.8495L26.6462 22.8177Z" fill="#20201F"/>
</svg>
