<svg width="156" height="52" viewBox="0 0 156 52" fill="none" xmlns="http://www.w3.org/2000/svg">
<path d="M52.4012 11.8725V42.6435H44.6428V38.721C43.6458 40.1956 42.2364 41.3689 40.4133 42.2409C38.5903 43.1128 36.5974 43.5488 34.4358 43.5488C31.7435 43.5488 29.3534 42.8831 27.2656 41.5542C25.1778 40.2253 23.5504 38.348 22.3847 35.9224C21.219 33.498 20.6355 30.676 20.6355 27.4587C20.6355 24.1735 21.24 21.2749 22.448 18.7603C23.6559 16.2458 25.3676 14.3018 27.5831 12.9285C29.7986 11.5539 32.3152 10.8672 35.1353 10.8672C37.298 10.8672 39.2265 11.2525 40.923 12.0232C42.6183 12.7938 43.9961 13.9177 45.0564 15.3924L45.6926 11.8725H52.4012ZM42.1145 33.4091C43.545 31.8332 44.2609 29.7386 44.2609 27.124C44.2609 24.5094 43.5556 22.4148 42.1461 20.8389C40.7355 19.263 38.8762 18.4763 36.5658 18.4763C34.2132 18.4763 32.3469 19.2753 30.9691 20.8735C29.5912 22.4716 28.9023 24.5551 28.9023 27.1252C28.9023 29.6953 29.6065 31.7789 31.0171 33.377C32.4265 34.9751 34.2554 35.7742 36.5025 35.7742C38.8129 35.7717 40.684 34.985 42.1145 33.4091Z" fill="white"/>
<path d="M60.271 18.6269C61.575 16.1581 63.4086 14.2475 65.7717 12.8951C68.1348 11.544 70.8541 10.8672 73.9284 10.8672C78.0618 10.8672 81.4747 12.0121 84.1671 14.3031C86.8594 16.5941 88.3743 19.6607 88.7141 23.5041H80.4472C80.0653 21.8504 79.2862 20.5882 78.1099 19.7162C76.9336 18.8443 75.4972 18.4096 73.8007 18.4096C71.6379 18.4096 69.8946 19.2086 68.5695 20.8068C67.2444 22.4049 66.5825 24.5564 66.5825 27.2598C66.5825 29.9189 67.2339 32.0481 68.5379 33.645C69.8419 35.2431 71.5958 36.0422 73.8007 36.0422C75.5382 36.0422 77.0074 35.5729 78.2048 34.6343C79.4022 33.6956 80.1496 32.4779 80.4472 30.981H88.7141C88.3321 34.7355 86.7844 37.7688 84.071 40.082C81.3576 42.3952 77.9763 43.5512 73.9272 43.5512C70.853 43.5512 68.1348 42.8757 65.7705 41.5233C63.4062 40.1722 61.5727 38.2616 60.2699 35.7915C58.9659 33.3226 58.3145 30.4561 58.3145 27.1932C58.3156 23.9512 58.9682 21.0958 60.271 18.6269Z" fill="white"/>
<path d="M94.7559 11.8721H102.833V42.6431H94.7559V11.8721Z" fill="white"/>
<path d="M140.577 0V42.6446H133.867L133.359 38.5221C132.362 40.0424 130.952 41.2602 129.129 42.1753C127.306 43.0917 125.303 43.5499 123.119 43.5499C120.341 43.5499 117.867 42.8744 115.695 41.522C113.521 40.1709 111.831 38.2491 110.623 35.7568C109.415 33.2658 108.81 30.4104 108.81 27.1931C108.81 23.998 109.415 21.1537 110.623 18.6627C111.831 16.1716 113.521 14.2499 115.695 12.8975C117.867 11.5464 120.342 10.8696 123.119 10.8696C125.154 10.8696 126.988 11.1993 128.62 11.8588C130.252 12.5184 131.566 13.4632 132.563 14.6908V0H140.577ZM130.29 33.409C131.721 31.8331 132.437 29.7385 132.437 27.1239C132.437 24.5093 131.732 22.4147 130.322 20.8388C128.912 19.2629 127.052 18.4762 124.742 18.4762C122.389 18.4762 120.523 19.2752 119.145 20.8734C117.767 22.4715 117.078 24.555 117.078 27.1252C117.078 29.6953 117.782 31.7788 119.193 33.3769C120.602 34.9751 122.431 35.7741 124.679 35.7741C126.989 35.7717 128.86 34.9849 130.29 33.409Z" fill="white"/>
<path d="M147.923 11.8721H156V42.6431H147.923V11.8721Z" fill="white"/>
<path d="M0 51.9997V44.1696H3.25003C4.97463 44.1696 6.23411 42.7011 6.23411 40.394V11.8721H14.6568V41.4438C14.6568 47.3856 9.88131 51.9997 4.31151 51.9997C2.52013 51.9997 0 51.9997 0 51.9997Z" fill="white"/>
</svg>
